<svg width="20" height="20" viewBox="0 0 20 20" fill="none" xmlns="http://www.w3.org/2000/svg">
<g id="ri:youtube-fill">
<path id="Vector" d="M10.2037 3.3335C10.6487 3.336 11.762 3.34683 12.9453 3.39433L13.3653 3.41266C14.5562 3.4685 15.7462 3.56516 16.337 3.72933C17.1245 3.951 17.7428 4.596 17.952 5.41433C18.2853 6.71433 18.327 9.24933 18.332 9.8635L18.3328 9.99016V10.1352C18.327 10.7493 18.2853 13.2852 17.952 14.5843C17.7403 15.4052 17.1212 16.051 16.337 16.2693C15.7462 16.4335 14.5562 16.5302 13.3653 16.586L12.9453 16.6052C11.762 16.6518 10.6487 16.6635 10.2037 16.6652L10.0078 16.666H9.79533C8.85366 16.6602 4.91533 16.6177 3.66199 16.2693C2.87533 16.0477 2.25616 15.4027 2.04699 14.5843C1.71366 13.2843 1.67199 10.7493 1.66699 10.1352V9.8635C1.67199 9.24933 1.71366 6.7135 2.04699 5.41433C2.25866 4.5935 2.87783 3.94766 3.66283 3.73016C4.91533 3.381 8.85449 3.3385 9.79616 3.3335H10.2037ZM8.33283 7.0835V12.9168L13.3328 10.0002L8.33283 7.0835Z" fill="white"/>
</g>
</svg>
