<svg width="20" height="20" viewBox="0 0 20 20" fill="none" xmlns="http://www.w3.org/2000/svg">
<g id="teenyicons:github-solid">
<path id="Vector" d="M12.4775 2.86013C10.8477 2.4814 9.15273 2.4814 7.52288 2.86013C6.58155 2.28279 5.86288 2.01746 5.34021 1.90546C5.11714 1.85511 4.88888 1.83139 4.66021 1.83479C4.55617 1.83761 4.45261 1.85011 4.35088 1.87213L4.33755 1.87479L4.33221 1.87746H4.32821L4.51088 2.51879L4.32821 1.87879C4.23454 1.90526 4.1478 1.95193 4.07409 2.0155C4.00038 2.07908 3.94149 2.15802 3.90155 2.24679C3.50818 3.12774 3.43324 4.11802 3.68955 5.04813C3.02573 5.8526 2.66398 6.8638 2.66688 7.90679C2.66688 9.97746 3.27755 11.3695 4.31888 12.2641C5.04821 12.8908 5.93355 13.2241 6.82155 13.4148C6.68181 13.8252 6.62913 14.2602 6.66688 14.6921V15.4895C6.12421 15.6028 5.74821 15.5668 5.48021 15.4788C5.14555 15.3681 4.88821 15.1455 4.64155 14.8255C4.5126 14.653 4.39245 14.4741 4.28155 14.2895L4.20555 14.1655C4.10958 14.0059 4.01 13.8485 3.90688 13.6935C3.65355 13.3188 3.27755 12.8495 2.66955 12.6895L2.02421 12.5201L1.68555 13.8108L2.33088 13.9801C2.43755 14.0068 2.57621 14.1068 2.80421 14.4415C2.89197 14.5736 2.97644 14.7078 3.05755 14.8441L3.14821 14.9908C3.27355 15.1935 3.41755 15.4175 3.58421 15.6361C3.92155 16.0761 4.38155 16.5201 5.06421 16.7455C5.53088 16.9001 6.06155 16.9375 6.66688 16.8441V19.3335C6.66688 19.5103 6.73712 19.6798 6.86214 19.8049C6.98717 19.9299 7.15674 20.0001 7.33355 20.0001H12.6669C12.8437 20.0001 13.0133 19.9299 13.1383 19.8049C13.2633 19.6798 13.3335 19.5103 13.3335 19.3335V14.5828C13.3335 14.1628 13.3149 13.7775 13.1962 13.4188C14.0802 13.2321 14.9589 12.8988 15.6842 12.2721C16.7242 11.3708 17.3335 9.96546 17.3335 7.88279V7.88146C17.3302 6.84701 16.9683 5.84571 16.3095 5.04813C16.5655 4.11843 16.4906 3.12868 16.0975 2.24813C16.0579 2.15925 15.9993 2.08013 15.9258 2.01633C15.8523 1.95252 15.7658 1.90558 15.6722 1.87879L15.4895 2.51879C15.6722 1.87879 15.6709 1.87879 15.6695 1.87879L15.6669 1.87746L15.6615 1.87479L15.6495 1.87213C15.6166 1.86356 15.5832 1.85689 15.5495 1.85213C15.4798 1.84194 15.4094 1.83615 15.3389 1.83479C15.1102 1.83142 14.882 1.85514 14.6589 1.90546C14.1375 2.01746 13.4189 2.28279 12.4775 2.86013Z" fill="white"/>
</g>
</svg>
