<svg width="21" height="20" viewBox="0 0 21 20" fill="none" xmlns="http://www.w3.org/2000/svg">
<g id="ph:link-bold">
<path id="Vector" d="M11.154 14.6508C11.2414 14.7379 11.3107 14.8413 11.3581 14.9553C11.4054 15.0693 11.4297 15.1914 11.4297 15.3148C11.4297 15.4382 11.4054 15.5604 11.3581 15.6743C11.3107 15.7883 11.2414 15.8918 11.154 15.9789L10.6899 16.4429C9.81057 17.3223 8.61791 17.8163 7.3743 17.8163C6.1307 17.8163 4.93804 17.3223 4.05868 16.4429C3.17932 15.5636 2.6853 14.3709 2.6853 13.1273C2.6853 11.8837 3.17932 10.691 4.05868 9.81169L5.94305 7.9281C6.78796 7.0811 7.92475 6.58921 9.12057 6.55319C10.3164 6.51717 11.4807 6.93974 12.3751 7.73435C12.4674 7.81642 12.5427 7.91588 12.5966 8.02705C12.6505 8.13821 12.682 8.2589 12.6892 8.38223C12.6965 8.50556 12.6794 8.62911 12.6389 8.74582C12.5984 8.86254 12.5353 8.97014 12.4532 9.06247C12.3711 9.15481 12.2717 9.23007 12.1605 9.28397C12.0493 9.33787 11.9287 9.36934 11.8053 9.3766C11.682 9.38385 11.5585 9.36675 11.4417 9.32625C11.325 9.28576 11.2174 9.22267 11.1251 9.1406C10.5888 8.66429 9.89074 8.4109 9.17377 8.43224C8.4568 8.45359 7.77508 8.74807 7.26805 9.25544L5.38524 11.1367C4.85771 11.6642 4.56135 12.3797 4.56135 13.1258C4.56135 13.8718 4.85771 14.5873 5.38524 15.1148C5.91277 15.6423 6.62826 15.9387 7.3743 15.9387C8.12035 15.9387 8.83583 15.6423 9.36337 15.1148L9.82743 14.6508C9.9145 14.5636 10.0179 14.4944 10.1317 14.4473C10.2455 14.4001 10.3675 14.3758 10.4907 14.3758C10.6139 14.3758 10.7359 14.4001 10.8497 14.4473C10.9635 14.4944 11.0669 14.5636 11.154 14.6508ZM16.9415 3.557C16.0614 2.679 14.869 2.18591 13.6259 2.18591C12.3827 2.18591 11.1903 2.679 10.3102 3.557L9.84618 4.02107C9.67006 4.19719 9.57112 4.43606 9.57112 4.68513C9.57112 4.9342 9.67006 5.17307 9.84618 5.34919C10.0223 5.52531 10.2612 5.62426 10.5102 5.62426C10.7593 5.62426 10.9982 5.52531 11.1743 5.34919L11.6384 4.88513C12.1659 4.3576 12.8814 4.06123 13.6274 4.06123C14.3735 4.06123 15.089 4.3576 15.6165 4.88513C16.144 5.41266 16.4404 6.12815 16.4404 6.87419C16.4404 7.62023 16.144 8.33572 15.6165 8.86325L13.7329 10.7476C13.2254 11.2548 12.5433 11.5488 11.8262 11.5696C11.109 11.5904 10.4111 11.3363 9.87509 10.8593C9.78275 10.7773 9.67515 10.7142 9.55844 10.6737C9.44172 10.6332 9.31817 10.6161 9.19484 10.6233C9.07152 10.6306 8.95082 10.6621 8.83966 10.716C8.7285 10.7699 8.62904 10.8451 8.54696 10.9375C8.46488 11.0298 8.4018 11.1374 8.36131 11.2541C8.32081 11.3708 8.3037 11.4944 8.31096 11.6177C8.31821 11.741 8.34969 11.8617 8.40359 11.9729C8.45748 12.0841 8.53275 12.1835 8.62509 12.2656C9.51882 13.06 10.6824 13.4829 11.8776 13.4476C13.0729 13.4123 14.2095 12.9215 15.0548 12.0758L16.9391 10.1922C17.8182 9.3123 18.3121 8.11957 18.3126 6.87585C18.313 5.63212 17.8199 4.43905 16.9415 3.55857V3.557Z" fill="#633CFF"/>
</g>
</svg>
