<svg width="20" height="20" viewBox="0 0 20 20" fill="none" xmlns="http://www.w3.org/2000/svg">
<g id="ri:codepen-line">
<path id="Vector" d="M13.7503 11.0016L10.8337 12.9458V15.9425L15.9978 12.5L13.7503 11.0016ZM12.2478 9.99996L10.0003 8.50163L7.75283 9.99996L10.0003 11.4983L12.2478 9.99996ZM16.667 9.05663L15.2528 9.99996L16.667 10.9433V9.05663ZM15.9978 7.49996L10.8337 4.05746V7.05413L13.7503 8.9983L15.9978 7.49996ZM6.25033 8.9983L9.16699 7.05413V4.05746L4.00283 7.49996L6.25033 8.9983ZM4.00283 12.5L9.16699 15.9425V12.9458L6.25033 11.0016L4.00283 12.5ZM3.33366 10.9433L4.74783 9.99996L3.33366 9.05663V10.9433ZM1.66699 7.49996C1.66697 7.3628 1.70081 7.22776 1.7655 7.10681C1.83019 6.98586 1.92373 6.88275 2.03783 6.80663L9.53783 1.80663C9.67477 1.71526 9.8357 1.6665 10.0003 1.6665C10.1649 1.6665 10.3259 1.71526 10.4628 1.80663L17.9628 6.80663C18.0769 6.88275 18.1705 6.98586 18.2352 7.10681C18.2998 7.22776 18.3337 7.3628 18.3337 7.49996V12.5C18.3337 12.6371 18.2998 12.7722 18.2352 12.8931C18.1705 13.0141 18.0769 13.1172 17.9628 13.1933L10.4628 18.1933C10.3259 18.2847 10.1649 18.3334 10.0003 18.3334C9.8357 18.3334 9.67477 18.2847 9.53783 18.1933L2.03783 13.1933C1.92373 13.1172 1.83019 13.0141 1.7655 12.8931C1.70081 12.7722 1.66697 12.6371 1.66699 12.5V7.49996Z" fill="white"/>
</g>
</svg>
