<svg width="20" height="20" viewBox="0 0 20 20" fill="none" xmlns="http://www.w3.org/2000/svg">
<g id="ri:gitlab-fill">
<path id="Vector" d="M18.0529 8.32265L18.0295 8.26265L15.7637 2.35098C15.7179 2.23435 15.6362 2.13528 15.5305 2.06803C15.4248 2.00079 15.3004 1.96885 15.1754 1.97682C15.0502 1.98239 14.93 2.02749 14.8321 2.10565C14.7342 2.18381 14.6635 2.291 14.6304 2.41182L13.1004 7.10015H6.90203L5.36953 2.41265C5.33673 2.29178 5.26649 2.18442 5.16887 2.10596C5.07125 2.02751 4.95129 1.98201 4.82619 1.97598C4.70114 1.96918 4.57709 2.00168 4.47143 2.06893C4.36577 2.13618 4.28381 2.23481 4.23703 2.35098L1.96869 8.27098L1.94536 8.32932C1.6197 9.18193 1.57965 10.1172 1.83122 10.9945C2.08278 11.8719 2.61238 12.6438 3.34036 13.1943L3.34869 13.2002L3.36869 13.216L6.82453 15.8027L8.53286 17.0968L9.57203 17.8835C9.69396 17.9756 9.84258 18.0254 9.99536 18.0254C10.1481 18.0254 10.2968 17.9756 10.4187 17.8835L11.4579 17.0968L13.1662 15.8027L16.6429 13.2002L16.6512 13.1935C17.3818 12.6437 17.9137 11.8711 18.1665 10.9925C18.4194 10.1138 18.3795 9.17667 18.0529 8.32265Z" fill="white"/>
</g>
</svg>
